<svg width="30" height="30" viewBox="0 0 30 30" fill="none" xmlns="http://www.w3.org/2000/svg">
<g clip-path="url(#clip0_476_53)">
<path d="M16.25 16.875C16.25 17.2202 15.9702 17.5 15.625 17.5H10.625C10.2798 17.5 10 17.2202 10 16.875V15.625C10 15.2798 10.2798 15 10.625 15H15.625C15.9702 15 16.25 15.2798 16.25 15.625V16.875ZM20 11.875C20 12.2202 19.7202 12.5 19.375 12.5H10.625C10.2798 12.5 10 12.2202 10 11.875V10.625C10 10.2798 10.2798 10 10.625 10H19.375C19.7202 10 20 10.2798 20 10.625V11.875ZM23.75 2.5H6.25C5.55964 2.5 5 3.05964 5 3.75V24.075C5.0046 24.406 5.13408 24.723 5.3625 24.9625L7.725 27.3125C7.83785 27.4339 7.99674 27.502 8.1625 27.5H8.525C8.69075 27.502 8.84965 27.4339 8.9625 27.3125L11.25 25C11.3654 24.8822 11.5226 24.8148 11.6875 24.8125C11.8521 24.8162 12.0088 24.8834 12.125 25L14.3875 27.2625C14.5003 27.3839 14.6592 27.452 14.825 27.45H15.1875C15.3533 27.452 15.5121 27.3839 15.625 27.2625L17.9 25C18.0154 24.8822 18.1726 24.8148 18.3375 24.8125C18.4933 24.8224 18.6401 24.8891 18.75 25L21.0125 27.2625C21.1253 27.3839 21.2842 27.452 21.45 27.45H21.8125C21.9783 27.452 22.1371 27.3839 22.25 27.2625L24.6375 25C24.8684 24.7672 24.9986 24.4529 25 24.125V3.75C25 3.05964 24.4404 2.5 23.75 2.5ZM22.5 23.575L21.675 24.4L20.75 23.4875L20.55 23.2875L20.125 22.8625C19.8922 22.6316 19.5779 22.5014 19.25 22.5H17.5C17.1677 22.4981 16.8484 22.6285 16.6125 22.8625L15 24.4125L13.45 22.8625C13.2172 22.6316 12.9029 22.5014 12.575 22.5H10.7625C10.4346 22.5014 10.1203 22.6316 9.8875 22.8625L8.35 24.4L7.5 23.55V5H22.5V23.575Z" fill="#344B47"/>
</g>
<defs>
<clipPath id="clip0_476_53">
<rect width="30" height="30" fill="white"/>
</clipPath>
</defs>
</svg>
