<svg width="33" height="33" viewBox="0 0 33 33" fill="none" xmlns="http://www.w3.org/2000/svg">
<circle cx="16.5" cy="16.5" r="16.5" fill="#FF9800"/>
<path d="M23.6667 10.8337H21.1667C21.1667 8.53247 19.3012 6.66699 17 6.66699C14.6988 6.66699 12.8333 8.53247 12.8333 10.8337H10.3333C9.8731 10.8337 9.5 11.2068 9.5 11.667V21.667C9.5 22.5875 10.2462 23.3337 11.1667 23.3337H22.8333C23.7538 23.3337 24.5 22.5875 24.5 21.667V11.667C24.5 11.2068 24.1269 10.8337 23.6667 10.8337ZM14.5 13.7503C14.5 13.9804 14.3135 14.167 14.0833 14.167H13.25C13.0199 14.167 12.8333 13.9804 12.8333 13.7503V12.917C12.8333 12.6869 13.0199 12.5003 13.25 12.5003H14.0833C14.3135 12.5003 14.5 12.6869 14.5 12.917V13.7503ZM17 8.33366C18.3807 8.33366 19.5 9.45295 19.5 10.8337H14.5C14.5 9.45295 15.6193 8.33366 17 8.33366ZM21.1667 13.7503C21.1667 13.9804 20.9801 14.167 20.75 14.167H19.9167C19.6865 14.167 19.5 13.9804 19.5 13.7503V12.917C19.5 12.6869 19.6865 12.5003 19.9167 12.5003H20.75C20.9801 12.5003 21.1667 12.6869 21.1667 12.917V13.7503Z" fill="white"/>
</svg>
