<svg width="33" height="33" viewBox="0 0 33 33" fill="none" xmlns="http://www.w3.org/2000/svg">
<circle cx="16.5" cy="16.5" r="16.5" fill="#3E97FF"/>
<path d="M19.0035 12.5C19.0035 11.1193 20.1232 10 21.5043 10C22.8854 10 24.005 11.1193 24.005 12.5C24.005 13.8807 22.8854 15 21.5043 15C20.1232 15 19.0035 13.8807 19.0035 12.5ZM14.002 14C15.6594 14 17.0029 12.6569 17.0029 11C17.0029 9.34315 15.6594 8 14.002 8C12.3447 8 11.0011 9.34315 11.0011 11C11.0011 12.6569 12.3447 14 14.002 14ZM19.4537 17.66C18.9447 16.6408 17.9023 15.9978 16.7629 16H11.2412C10.1017 15.9978 9.05932 16.6408 8.55037 17.66L7.10994 20.55C6.95392 20.8595 6.96935 21.2277 7.15071 21.5231C7.33208 21.8185 7.65351 21.999 8.00021 22H20.0038C20.3505 21.999 20.672 21.8185 20.8533 21.5231C21.0347 21.2277 21.0501 20.8595 20.8941 20.55L19.4537 17.66ZM26.8959 20.55L25.9456 18.65C25.4355 17.638 24.3984 16.9997 23.2648 17H21.3542L22.6846 19.66C23.0501 20.3874 23.1043 21.2319 22.8347 22H26.0057C26.3524 21.999 26.6738 21.8185 26.8551 21.5231C27.0365 21.2277 27.0519 20.8595 26.8959 20.55Z" fill="white"/>
</svg>
