<svg width="30" height="30" viewBox="0 0 30 30" fill="none" xmlns="http://www.w3.org/2000/svg">
<g clip-path="url(#clip0_476_49)">
<path d="M24 8.75H20.25C20.25 5.29822 17.4518 2.5 14 2.5C10.5482 2.5 7.75 5.29822 7.75 8.75H4C3.30964 8.75 2.75 9.30965 2.75 10V25C2.75 26.3807 3.86929 27.5 5.25 27.5H22.75C24.1307 27.5 25.25 26.3807 25.25 25V10C25.25 9.30965 24.6904 8.75 24 8.75ZM10.25 13.125C10.25 13.4702 9.97018 13.75 9.625 13.75H8.375C8.02982 13.75 7.75 13.4702 7.75 13.125V11.875C7.75 11.5298 8.02982 11.25 8.375 11.25H9.625C9.97018 11.25 10.25 11.5298 10.25 11.875V13.125ZM14 5C16.0711 5 17.75 6.67893 17.75 8.75H10.25C10.25 6.67893 11.9289 5 14 5ZM20.25 13.125C20.25 13.4702 19.9702 13.75 19.625 13.75H18.375C18.0298 13.75 17.75 13.4702 17.75 13.125V11.875C17.75 11.5298 18.0298 11.25 18.375 11.25H19.625C19.9702 11.25 20.25 11.5298 20.25 11.875V13.125Z" fill="#344B47"/>
</g>
<defs>
<clipPath id="clip0_476_49">
<rect width="30" height="30" fill="white"/>
</clipPath>
</defs>
</svg>
