<svg width="33" height="33" viewBox="0 0 33 33" fill="none" xmlns="http://www.w3.org/2000/svg">
<circle cx="16.5" cy="16.5" r="16.5" fill="#7239EA"/>
<g clip-path="url(#clip0_704_7)">
<path d="M26.5833 21.9999H25.3333V11.1666C25.3333 10.9456 25.2455 10.7336 25.0893 10.5773C24.933 10.421 24.721 10.3333 24.5 10.3333H9.5C9.27899 10.3333 9.06702 10.421 8.91074 10.5773C8.75446 10.7336 8.66667 10.9456 8.66667 11.1666V21.9999H7.41667C7.30616 21.9999 7.20018 22.0438 7.12204 22.122C7.0439 22.2001 7 22.3061 7 22.4166V22.8333C7 23.0543 7.0878 23.2662 7.24408 23.4225C7.40036 23.5788 7.61232 23.6666 7.83333 23.6666H26.1667C26.3877 23.6666 26.5996 23.5788 26.7559 23.4225C26.9122 23.2662 27 23.0543 27 22.8333V22.4166C27 22.3061 26.9561 22.2001 26.878 22.122C26.7998 22.0438 26.6938 21.9999 26.5833 21.9999ZM17 12.6249C17.3708 12.6249 17.7334 12.7349 18.0417 12.9409C18.35 13.1469 18.5904 13.4398 18.7323 13.7824C18.8742 14.125 18.9113 14.502 18.839 14.8657C18.7666 15.2294 18.588 15.5635 18.3258 15.8257C18.0636 16.088 17.7295 16.2665 17.3658 16.3389C17.0021 16.4112 16.6251 16.3741 16.2825 16.2322C15.9399 16.0903 15.647 15.85 15.441 15.5416C15.235 15.2333 15.125 14.8708 15.125 14.4999C15.1239 14.2534 15.1716 14.0091 15.2655 13.7811C15.3593 13.5531 15.4974 13.346 15.6717 13.1716C15.846 12.9973 16.0532 12.8592 16.2812 12.7654C16.5091 12.6716 16.7535 12.6238 17 12.6249ZM20.5417 21.1666H13.4583C13.3513 21.1668 13.2461 21.1395 13.1526 21.0874C13.0592 21.0353 12.9807 20.96 12.9246 20.8689C12.8686 20.7777 12.8369 20.6737 12.8326 20.5668C12.8283 20.4599 12.8515 20.3536 12.9 20.2583L13.6667 18.7499C13.8045 18.4763 14.0151 18.246 14.2753 18.0843C14.5356 17.9226 14.8353 17.8357 15.1417 17.8333H18.8583C19.1647 17.8357 19.4644 17.9226 19.7247 18.0843C19.9849 18.246 20.1955 18.4763 20.3333 18.7499L21.0833 20.2583C21.1312 20.3524 21.1545 20.4571 21.151 20.5627C21.1475 20.6682 21.1172 20.7712 21.0631 20.8619C21.009 20.9526 20.9328 21.0281 20.8417 21.0814C20.7505 21.1347 20.6473 21.164 20.5417 21.1666Z" fill="white"/>
</g>
<defs>
<clipPath id="clip0_704_7">
<rect width="20" height="20" fill="white" transform="translate(7 7)"/>
</clipPath>
</defs>
</svg>
