<svg width="27" height="28" viewBox="0 0 27 28" fill="none" xmlns="http://www.w3.org/2000/svg">
<path d="M25.7183 17.8296L24.5983 16.9038C23.9192 16.339 23.5456 15.4864 23.5903 14.6032C23.5903 14.4068 23.5903 14.1964 23.5903 14C23.5903 13.8036 23.5903 13.5932 23.5903 13.3968C23.5456 12.5136 23.9192 11.661 24.5983 11.0962L25.7183 10.1704C26.2497 9.73857 26.3918 8.98516 26.0543 8.38882L24.4303 5.58324C24.086 4.99747 23.3722 4.74328 22.7363 4.98004L21.3363 5.48504C20.5101 5.79444 19.5867 5.69567 18.8443 5.21851C18.5152 4.99069 18.1688 4.78901 17.8083 4.61531C17.0205 4.2105 16.4702 3.45623 16.3243 2.58126L16.0863 1.17846C15.9754 0.492417 15.3798 -0.00882641 14.6863 0.000117823H11.4663C10.7727 -0.00882641 10.1772 0.492417 10.0663 1.17846L9.82827 2.58126C9.69455 3.44518 9.16656 4.19726 8.40027 4.61531C8.03977 4.78901 7.69338 4.99069 7.36427 5.21851C6.62187 5.69567 5.69847 5.79444 4.87227 5.48504L3.47227 4.98004C2.84444 4.75876 2.14792 5.01094 1.80627 5.58324L0.182275 8.38882C-0.15523 8.98516 -0.0131368 9.73857 0.518275 10.1704L1.63827 11.0962C2.31734 11.661 2.6909 12.5136 2.64627 13.3968C2.64627 13.5932 2.64627 13.8036 2.64627 14C2.64627 14.1964 2.64627 14.4068 2.64627 14.6032C2.6909 15.4864 2.31734 16.339 1.63827 16.9038L0.518275 17.8296C-0.0131368 18.2614 -0.15523 19.0148 0.182275 19.6112L1.80627 22.4168C2.1505 23.0025 2.86433 23.2567 3.50027 23.02L4.90027 22.515C5.72647 22.2056 6.64987 22.3043 7.39227 22.7815C7.72138 23.0093 8.06777 23.211 8.42827 23.3847C9.21605 23.7895 9.76636 24.5438 9.91227 25.4187L10.1503 26.8215C10.2612 27.5076 10.8567 28.0088 11.5503 27.9999H14.7703C15.4638 28.0088 16.0594 27.5076 16.1703 26.8215L16.4083 25.4187C16.5542 24.5438 17.1045 23.7895 17.8923 23.3847C18.2528 23.211 18.5992 23.0093 18.9283 22.7815C19.6707 22.3043 20.5941 22.2056 21.4203 22.515L22.8203 23.02C23.4315 23.2115 24.0945 22.9631 24.4303 22.4168L26.0543 19.6112C26.3918 19.0148 26.2497 18.2614 25.7183 17.8296ZM13.1183 18.2084C10.7987 18.2084 8.91827 16.3242 8.91827 14C8.91827 11.6758 10.7987 9.79162 13.1183 9.79162C15.4379 9.79162 17.3183 11.6758 17.3183 14C17.3183 15.1161 16.8758 16.1866 16.0881 16.9758C15.3005 17.765 14.2322 18.2084 13.1183 18.2084Z" fill="#6CB9FE"/>
</svg>
