<svg width="18" height="21" viewBox="0 0 18 21" fill="none" xmlns="http://www.w3.org/2000/svg">
<g clip-path="url(#clip0_723_39)">
<path d="M10.201 7.67258H10.8068C10.9741 7.67258 11.1097 7.80819 11.1097 7.97547V17.7711L13.7994 15.0753C13.8562 15.018 13.9337 14.9857 14.0144 14.9857C14.0952 14.9857 14.1726 15.018 14.2295 15.0753L14.6535 15.5054C14.7109 15.5623 14.7431 15.6397 14.7431 15.7205C14.7431 15.8012 14.7109 15.8786 14.6535 15.9355L10.9401 19.6551C10.8549 19.7403 10.7394 19.7882 10.619 19.7883H10.3888C10.2686 19.7869 10.1536 19.7392 10.0677 19.6551L6.35424 15.9355C6.2969 15.8786 6.26465 15.8012 6.26465 15.7205C6.26465 15.6397 6.2969 15.5623 6.35424 15.5054L6.78435 15.0753C6.84018 15.0183 6.9166 14.9862 6.99638 14.9862C7.07615 14.9862 7.15257 15.0183 7.2084 15.0753L9.8981 17.7711V7.97547C9.8981 7.80819 10.0337 7.67258 10.201 7.67258Z" fill="#333333"/>
</g>
<g clip-path="url(#clip1_723_39)">
<path d="M7.57241 13.3274H6.96662C6.79934 13.3274 6.66373 13.1918 6.66373 13.0245V3.22892L3.97403 5.92467C3.91716 5.98201 3.83974 6.01427 3.75897 6.01427C3.67821 6.01427 3.60079 5.98201 3.54392 5.92467L3.11987 5.49456C3.06253 5.43769 3.03027 5.36027 3.03027 5.27951C3.03027 5.19874 3.06253 5.12132 3.11987 5.06445L6.83335 1.34492C6.91847 1.25969 7.03396 1.21175 7.15441 1.21164H7.38461C7.50481 1.21304 7.61983 1.26078 7.70568 1.34492L11.4192 5.06445C11.4765 5.12132 11.5088 5.19874 11.5088 5.27951C11.5088 5.36027 11.4765 5.43769 11.4192 5.49456L10.989 5.92467C10.9332 5.98165 10.8568 6.01376 10.777 6.01376C10.6972 6.01376 10.6208 5.98165 10.565 5.92467L7.8753 3.22892L7.8753 13.0245C7.8753 13.1918 7.73969 13.3274 7.57241 13.3274Z" fill="#333333"/>
</g>
<defs>
<clipPath id="clip0_723_39">
<rect width="14.5389" height="14.5389" fill="white" transform="matrix(0 -1 1 0 3.23438 21)"/>
</clipPath>
<clipPath id="clip1_723_39">
<rect width="14.5389" height="14.5389" fill="white" transform="matrix(0 -1 1 0 0 14.5391)"/>
</clipPath>
</defs>
</svg>
