<svg width="15" height="10" viewBox="0 0 15 10" fill="none" xmlns="http://www.w3.org/2000/svg">
<path d="M1 9L4.499 4.801C4.66201 4.60511 4.87129 4.45296 5.10789 4.35829C5.3445 4.26363 5.60097 4.22944 5.85411 4.25882C6.10726 4.28821 6.34908 4.38024 6.55771 4.52658C6.76634 4.67293 6.93519 4.86898 7.049 5.097C7.15774 5.31411 7.31648 5.50231 7.51214 5.64611C7.70781 5.78991 7.93481 5.8852 8.17449 5.92416C8.41417 5.96311 8.65967 5.94461 8.8908 5.87017C9.12194 5.79574 9.3321 5.6675 9.504 5.496L13.5 1.5" stroke="#00C308" stroke-width="2" stroke-linecap="round" stroke-linejoin="round"/>
<path d="M9 1H13.672C13.853 1 14 1.147 14 1.328V6" stroke="#00C308" stroke-width="2" stroke-linecap="round" stroke-linejoin="round"/>
</svg>
